PathFileType	4	(X/Y/Z)	C:/Users/beibeiliu/ov580/test_trc/User3\sequence.22_training_dense_left.trc
DataRate	CameraRate	NumFrames	NumMarkers	Units	OrigDataRate	OrigDataStartFrame	OrigNumFrames
120	120	11	19	mm	120	80	106
Frame#	Time	ThumbCMC			ThumbMCP			ThumbIP			ThumbTip			IndexMCP			IndexPIP			IndexTip			MiddleMCP			MiddlePIP			MiddleTip			RingMCP			RingPIP			RingTip			PinkyMCP			PinkyPIP			PinkyTip			BackHand1			BackHand2			BackHand3	
		X0	Y0	Z0	X1	Y1	Z1	X2	Y2	Z2	X3	Y3	Z3	X4	Y4	Z4	X5	Y5	Z5	X6	Y6	Z6	X7	Y7	Z7	X8	Y8	Z8	X9	Y9	Z9	X10	Y10	Z10	X11	Y11	Z11	X12	Y12	Z12	X13	Y13	Z13	X14	Y14	Z14	X15	Y15	Z15	X16	Y16	Z16	X17	Y17	Z17	X18	Y18	Z18	
79	0.658333	-68.2987	5.80055	13.6692	-51.6791	-9.05355	-8.45654	-37.9959	-23.5478	-31.8929	-34.1245	-40.7928	-47.4657	-71.6893	-34.1099	-46.8175	-49.5533	-53.4213	-30.6625	-56.3612	-33.4248	-8.49379	-82.1703	-52.4548	-38.538	-59.6198	-63.6038	-19.2831	-74.6249	-37.2271	5.39753	-91.0472	-61.4852	-28.569	-75.6527	-71.8293	-5.0653	-77.9115	-46.5544	14.776	-117.649	-57.8001	-24.7721	-107.836	-77.7567	-37.8577	-86.4636	-94.2173	-36.5393	-125.883	-17.2508	-1.50401	-130.01	-2.76533	20.6182	-103.725	10.2298	-0.0841321	
80	0.666667	-89.0953	19.809	10.5255	-64.1369	16.2764	-7.33725	-46.9414	1.01749	-28.4077	-31.8072	-11.6231	-38.8465	-61.8515	-26.2598	-42.4089	-38.1172	-27.8325	-20.7901	-59.0349	-8.85757	-3.87641	-65.8831	-43.9436	-29.4076	-43.8268	-40.7786	-4.77281	-70.6441	-19.7437	11.4727	-73.5951	-52.6438	-17.591	-51.8367	-50.5994	3.13623	-70.4934	-26.2102	21.4835	-94.1099	-68.9599	-14.6109	-73.4047	-74.9955	-21.3574	-47.0957	-81.0648	-13.7905	-125.573	-33.9935	-4.21353	-136.127	-14.4608	20.6957	-119.445	4.95924	-2.58821	
81	0.675	-112.116	28.9034	5.61229	-86.2446	30.3394	-12.8225	-63.4795	26.5059	-31.7923	-43.8161	21.7064	-40.2945	-64.212	-6.11988	-39.4697	-40.0361	3.86105	-21.4802	-67.7463	9.7801	-1.21618	-56.7855	-19.6004	-26.9494	-40.2654	-3.23549	-3.76274	-75.2262	-3.47794	15.2664	-59.4661	-34.996	-10.922	-41.864	-21.5289	9.65547	-71.614	-4.63444	24.9302	-69.1654	-52.0648	-8.33327	-46.8784	-53.0694	-13.8159	-19.7458	-47.6527	-6.97479	-115.588	-40.4418	2.11922	-133.525	-31.8004	23.8902	-127.537	-5.68853	-3.8445	
82	0.683333	-131.972	22.7834	2.65808	-112.144	34.4559	-13.5461	-86.3718	39.6763	-35.2914	-67.2106	41.0243	-45.6167	-72.4033	11.8347	-42.5677	-56.3488	34.6298	-26.23	-80.203	29.3024	-2.92314	-61.677	0.105906	-27.4923	-53.0826	25.7509	-3.79422	-85.1593	12.3146	12.902	-54.8251	-10.0179	-11.9538	-45.6268	10.0927	8.51732	-76.9358	15.374	22.3286	-59.7658	-31.4586	-1.96408	-36.8055	-24.7378	-11.0572	-16.2549	-11.5324	-12.2589	-104.361	-36.8771	-0.055869	-127.231	-36.6013	23.2368	-132.149	-15.8199	-2.62472	
83	0.691667	-146.018	16.7744	5.10634	-132.303	35.6961	-19.1071	-111.39	44.1916	-38.7508	-93.8317	53.9183	-52.8906	-89.4765	22.9961	-46.4523	-78.3731	50.565	-31.7425	-100.081	42.2597	-7.90761	-69.1025	18.7939	-32.0073	-68.7116	42.5068	-10.5165	-95.0127	24.2405	8.19842	-63.7092	8.35795	-17.6429	-59.0886	33.4039	0.428706	-88.3623	26.042	19.7525	-57.8746	-11.7459	-5.47072	-40.5591	-0.787909	-14.2644	-26.2365	16.4174	-26.1067	-98.7773	-31.1836	1.87056	-118.821	-36.9284	26.4399	-133.44	-18.309	-4.53424	
84	0.7	-158.023	10.9308	0.789256	-149.615	30.0413	-22.6753	-137.894	44.1576	-46.7332	-122.78	54.5766	-59.1903	-109.609	24.4934	-52.6325	-103.041	55.2938	-37.2508	-121.08	46.2807	-14.11	-91.2225	27.5402	-41.2272	-89.3566	51.6222	-22.0301	-113.349	28.1959	1.70012	-76.7203	18.815	-26.0792	-81.1267	45.7836	-8.70386	-104.669	32.3065	10.694	-69.7921	1.03635	-17.5081	-54.0919	13.4129	-25.9272	-45.2034	28.3259	-40.5775	-102.295	-28.7952	-1.6621	-121.474	-34.3255	26.5244	-140.906	-21.2184	-4.69619	
85	0.708333	-170.938	0.758429	6.09165	-165.098	17.6121	-20.0345	-157.7	31.6203	-43.7366	-149.351	44.25	-62.9638	-128.924	18.816	-55.7394	-127.15	48.2282	-48.5677	-139.033	40.2353	-17.4371	-112.247	21.2063	-47.5978	-116.031	49.5846	-28.617	-128.594	26.0187	-3.12493	-93.2724	18.8814	-33.5696	-101.558	46.453	-20.3648	-117.636	29.8577	6.61574	-79.9127	2.73791	-25.4908	-74.0373	16.0136	-37.1445	-63.4174	33.5324	-55.24	-109.786	-29.0335	-0.363613	-123.069	-36.4341	23.2194	-149.581	-29.1072	0.902997	
86	0.716667	-178.793	-10.4928	13.7641	-180.089	5.89591	-15.1916	-179.327	18.8742	-40.2194	-169.542	30.1467	-63.8063	-145.999	4.83884	-53.2103	-150.491	38.8065	-49.5321	-157.221	29.6972	-16.132	-125.833	9.86829	-46.5026	-132.447	39.6589	-34.9117	-140.793	14.4331	-1.29565	-112.317	11.0504	-36.1497	-117.335	38.7887	-21.0485	-129.99	26.2834	3.57396	-98.5247	-4.04661	-26.6683	-94.1987	10.9607	-45.3465	-84.6606	25.6245	-59.9986	-118.972	-34.0125	3.42885	-128.687	-42.6833	26.1583	-157.58	-39.3547	5.1993	
87	0.725	-191.489	-22.4234	21.0206	-196.934	-10.3693	-9.39921	-193.66	-3.12667	-36.1376	-195.511	6.48177	-58.9133	-167.036	-14.4838	-52.7615	-169.731	17.4519	-51.9497	-174.762	16.2634	-17.1366	-150.078	-7.29391	-49.5199	-155.615	22.8289	-38.1287	-158.669	5.06071	-4.06242	-128.646	-6.69479	-38.9521	-136.599	22.5232	-31.0054	-147.082	12.6639	0.45426	-116.367	-19.7738	-28.4656	-111.856	-7.28531	-50.839	-109.77	7.16957	-67.2631	-130.649	-47.7997	5.3402	-136.203	-51.0814	36.3617	-167.501	-51.9339	14.2412	
88	0.733333	-202.563	-29.17	27.249	-209.953	-22.7128	-0.412916	-218.091	-21.1566	-32.6647	-215.023	-17.5912	-55.576	-191.008	-38.07	-44.925	-193.024	-2.63788	-51.0371	-188.518	3.512	-21.0285	-170.231	-29.2179	-49.537	-171.251	1.78794	-40.6493	-173.263	-7.70107	-5.23634	-150.111	-31.0703	-39.9147	-154.384	-0.776963	-39.2944	-157.973	-0.338313	-5.73972	-138.915	-43.5479	-31.356	-139.378	-36.1891	-52.5256	-136.578	-25.176	-74.04	-150.618	-62.614	10.5262	-147.461	-60.5913	38.8035	-183.947	-60.1859	20.4821	
89	0.741667	-207.927	-21.0065	31.8332	-218.407	-17.4008	4.60921	-228.024	-18.5153	-24.5231	-233.137	-15.6587	-44.3697	-214.458	-42.387	-38.4179	-206.353	-11.648	-50.3656	-198.611	-0.0184534	-19.7085	-194.127	-42.0424	-46.0889	-185.871	-10.3171	-43.6241	-178.79	-15.1824	-6.15055	-176.429	-46.7889	-40.3354	-165.578	-17.506	-43.0455	-166.595	-11.2392	-10.3316	-161.715	-63.5937	-29.5143	-167.816	-57.4065	-53.1043	-171.584	-47.7531	-76.0253	-170.821	-71.5056	14.2484	-163.708	-66.704	43.0107	-202.574	-57.6937	30.3884	
